#!OML:ASF C:\ViconDB\ViconDB\414\Spring2016\041811\Spring2016.ASF
:FULLY-SPECIFIED
:DEGREES
201
root 9.00108 18.4115 -13.5908 -180.249 0.915049 -179.704
lowerback 3.39615 1.37435 -4.06417
upperback 1.85108 1.79317 -0.294367
thorax -0.113521 0.906158 1.91163
lowerneck -10.3749 -4.15424 -9.60373
upperneck 16.2885 -7.36573 13.9903
head 7.56816 -3.27012 5.46378
rclavicle -1.37161e-014 3.18055e-015
rhumerus -41.5074 -17.1026 -80.922
rradius 37.2955
rwrist 35.7012
rhand -34.4018 -14.2869
rfingers 7.12502
rthumb -7.56742 -44.1315
lclavicle -1.37161e-014 3.18055e-015
lhumerus -37.5759 -8.53903 91.7664
lradius 28.9769
lwrist -27.8407
lhand -29.2266 16.8783
lfingers 7.12502
lthumb -2.57056 46.8425
rfemur -15.0458 -17.5177 14.164
rtibia 72.6689
rfoot -159.772 -3.13954
rtoes -10.5015
lfemur -12.1668 -4.2183 -18.5487
ltibia 23.8971
lfoot -12.5099 2.07968
ltoes -8.39879
202
root 8.97025 18.4121 -13.7664 -180.358 0.630239 -179.681
lowerback 3.63249 1.13939 -3.99253
upperback 1.81908 1.46953 -0.252354
thorax -0.257528 0.747555 1.92161
lowerneck -10.2845 -3.99199 -9.44408
upperneck 16.4043 -7.19687 13.9356
head 7.55847 -3.19369 5.43893
rclavicle -8.49804e-015 3.45885e-014
rhumerus -41.9727 -17.588 -80.7097
rradius 37.0273
rwrist 36.2651
rhand -34.6458 -14.6719
rfingers 7.12502
rthumb -7.80291 -44.5079
lclavicle -8.49804e-015 3.45885e-014
lhumerus -37.3057 -9.14575 91.7768
lradius 29.3989
lwrist -27.9018
lhand -29.1228 16.9982
lfingers 7.12502
lthumb -2.47032 46.9636
rfemur -16.6225 -18.3554 14.469
rtibia 73.3906
rfoot -161.026 -3.15524
rtoes -10.2945
lfemur -11.3572 -4.88226 -18.7503
ltibia 23.8242
lfoot -13.1384 2.42478
ltoes -8.93018
203
root 8.94365 18.4109 -13.9479 -180.462 0.524714 -179.551
lowerback 3.80466 0.985559 -3.8819
upperback 1.78868 1.25721 -0.137388
thorax -0.372151 0.64298 1.98305
lowerneck -10.2675 -3.89342 -9.25597
upperneck 16.5835 -7.08771 13.7318
head 7.58455 -3.14864 5.35158
rclavicle 1.39895e-014 0
rhumerus -42.5343 -18.2925 -80.2642
rradius 36.8705
rwrist 36.5786
rhand -34.5277 -14.2239
rfingers 7.12502
rthumb -7.68893 -44.0641
lclavicle 1.39895e-014 0
lhumerus -36.7046 -9.94422 91.9019
lradius 29.403
lwrist -28.2534
lhand -29.1148 16.694
lfingers 7.12502
lthumb -2.4626 46.6596
rfemur -18.1769 -18.9012 15.0014
rtibia 73.7472
rfoot -162.036 -3.07896
rtoes -9.92299
lfemur -10.5575 -5.33328 -18.844
ltibia 23.8385
lfoot -13.8979 2.73421
ltoes -8.7662
204
root 8.92137 18.4032 -14.1282 -180.575 0.371272 -179.272
lowerback 4.01819 0.835466 -3.62464
upperback 1.73216 1.05244 0.0168492
thorax -0.535551 0.543129 2.0025
lowerneck -10.1411 -3.7873 -9.23344
upperneck 16.7079 -7.01414 13.8196
head 7.59389 -3.11938 5.38906
rclavicle -1.963e-015 -1.07344e-014
rhumerus -43.1356 -18.7216 -80.0346
rradius 36.8319
rwrist 36.0645
rhand -34.5573 -14.346
rfingers 7.12502
rthumb -7.71749 -44.1852
lclavicle -1.963e-015 -1.07344e-014
lhumerus -36.1831 -10.33 91.9473
lradius 29.4248
lwrist -28.176
lhand -29.4259 16.2636
lfingers 7.12502
lthumb -2.76305 46.2255
rfemur -19.5895 -19.3446 15.8013
rtibia 73.7432
rfoot -162.969 -2.83734
rtoes -9.78329
lfemur -9.79822 -6.00319 -18.7672
ltibia 23.9406
lfoot -14.6105 3.12348
ltoes -9.38297
205
root 8.89747 18.391 -14.308 -180.69 0.258317 -179.166
lowerback 4.23531 0.70225 -3.52666
upperback 1.68763 0.867864 0.145273
thorax -0.691943 0.453286 2.08514
lowerneck -9.97313 -3.6491 -9.25603
upperneck 16.7691 -6.85468 13.8351
head 7.56284 -3.05538 5.41854
rclavicle -1.2275e-014 -5.96354e-015
rhumerus -43.7588 -19.0322 -79.7395
rradius 36.8968
rwrist 35.6016
rhand -34.4178 -14.5324
rfingers 7.12502
rthumb -7.58289 -44.3765
lclavicle -1.2275e-014 -5.96354e-015
lhumerus -35.7761 -10.9137 92.0605
lradius 29.8419
lwrist -27.8719
lhand -29.3061 16.1867
lfingers 7.12502
lthumb -2.64737 46.15
rfemur -20.9486 -19.723 16.4179
rtibia 73.4171
rfoot -163.757 -2.38937
rtoes -9.87802
lfemur -9.07903 -6.59043 -18.8951
ltibia 24.1127
lfoot -15.3608 3.52569
ltoes -9.71507
206
root 8.87778 18.3765 -14.4862 -180.769 0.164787 -179.245
lowerback 4.42751 0.626681 -3.60742
upperback 1.65271 0.755765 0.219307
thorax -0.830004 0.39962 2.20996
lowerneck -9.91653 -3.61606 -9.36929
upperneck 16.8839 -6.89414 14.1006
head 7.60724 -3.0736 5.52748
rclavicle 4.17448e-015 3.57812e-015
rhumerus -44.4757 -19.6089 -79.3303
rradius 36.8877
rwrist 35.9228
rhand -34.7617 -14.6382
rfingers 7.12502
rthumb -7.91474 -44.47
lclavicle 4.17448e-015 3.57812e-015
lhumerus -35.3678 -11.9442 92.3926
lradius 30.2749
lwrist -27.179
lhand -29.3025 16.3692
lfingers 7.12502
lthumb -2.64381 46.3326
rfemur -22.3176 -19.9916 16.9103
rtibia 72.8295
rfoot -164.384 -1.90385
rtoes -10.7021
lfemur -8.4958 -7.01904 -19.2024
ltibia 24.4653
lfoot -16.1826 3.80038
ltoes -10.2474
207
root 8.86176 18.3545 -14.6686 -180.815 0.0992877 -179.282
lowerback 4.46531 0.491654 -3.7808
upperback 1.64163 0.566899 0.307802
thorax -0.852337 0.304926 2.40798
lowerneck -9.87987 -3.47195 -9.02427
upperneck 17.0131 -6.75603 13.927
head 7.60662 -3.00663 5.42471
rclavicle 1.76421e-015 -5.56597e-015
rhumerus -45.1199 -20.1695 -78.9088
rradius 37.0308
rwrist 36.2186
rhand -34.5668 -14.6209
rfingers 7.12502
rthumb -7.72668 -44.4598
lclavicle 1.76421e-015 -5.56597e-015
lhumerus -34.906 -12.3034 92.2963
lradius 30.7652
lwrist -26.941
lhand -29.1903 16.1544
lfingers 7.12502
lthumb -2.53553 46.1191
rfemur -23.601 -20.1287 17.4959
rtibia 71.8925
rfoot -164.983 -1.38857
rtoes -10.6061
lfemur -7.93791 -7.65633 -19.4905
ltibia 24.8693
lfoot -17.0906 4.29104
ltoes -10.5102
